<svg width="96" height="96" viewBox="0 0 96 96" fill="none" xmlns="http://www.w3.org/2000/svg">
<rect width="96" height="96" rx="48" fill="#DBEAFE"/>
<path d="M63.5192 43.9554C62.1106 43.7006 60.6815 43.576 59.25 43.5834C58.4275 43.5834 57.6246 43.5834 56.8217 43.74C55.8221 42.4062 54.5462 41.3039 53.0813 40.5088C54.3396 39.1345 55.0381 37.3392 55.0396 35.4759C55.0396 33.471 54.2432 31.5483 52.8256 30.1307C51.4079 28.7131 49.4852 27.9167 47.4804 27.9167C45.4756 27.9167 43.5529 28.7131 42.1353 30.1307C40.7177 31.5483 39.9213 33.471 39.9213 35.4759C39.9227 37.3392 40.6213 39.1345 41.8796 40.5088C40.4234 41.3081 39.1495 42.4018 38.1392 43.7204C37.3754 43.5834 36.5725 43.5834 35.75 43.5834C34.3173 43.5889 32.8882 43.7266 31.4808 43.9946C31.0246 44.078 30.6128 44.3206 30.3188 44.6793C30.0247 45.0379 29.8674 45.4892 29.875 45.9529V62.1092C29.8745 62.3969 29.9375 62.6812 30.0593 62.9418C30.1812 63.2024 30.3589 63.433 30.58 63.6171C30.7997 63.8023 31.0574 63.9369 31.3349 64.0114C31.6124 64.0859 31.903 64.0983 32.1858 64.0479C33.3577 63.7927 34.5511 63.6485 35.75 63.6171C39.5435 63.6129 43.2547 64.7229 46.4229 66.8092L46.6775 66.9071C46.9373 67.0198 47.2169 67.0797 47.5 67.0834C47.6869 67.081 47.8722 67.0479 48.0483 66.9854H48.1854L48.44 66.8875C51.6384 64.7477 55.4018 63.6091 59.25 63.6171C60.4465 63.6227 61.6398 63.7407 62.8142 63.9696C63.097 64.02 63.3876 64.0075 63.6651 63.9331C63.9426 63.8586 64.2003 63.724 64.42 63.5388C64.6411 63.3546 64.8188 63.1241 64.9407 62.8634C65.0625 62.6028 65.1255 62.3186 65.125 62.0309V45.8746C65.1233 45.4176 64.9619 44.9756 64.6686 44.6251C64.3753 44.2746 63.9687 44.0377 63.5192 43.9554ZM47.5 31.8334C48.4174 31.9008 49.2753 32.3127 49.9014 32.9866C50.5276 33.6604 50.8756 34.5462 50.8756 35.4661C50.8756 36.3859 50.5276 37.2717 49.9014 37.9455C49.2753 38.6194 48.4174 39.0314 47.5 39.0988C46.5826 39.0314 45.7247 38.6194 45.0986 37.9455C44.4724 37.2717 44.1244 36.3859 44.1244 35.4661C44.1244 34.5462 44.4724 33.6604 45.0986 32.9866C45.7247 32.3127 46.5826 31.9008 47.5 31.8334ZM45.5417 61.8546C42.4723 60.4358 39.1314 59.7008 35.75 59.7004C35.1038 59.7004 34.4575 59.7004 33.7917 59.7984V47.5C35.4339 47.3163 37.0931 47.3492 38.7267 47.5979H38.9421C41.2756 48.0268 43.5118 48.8762 45.5417 50.1046V61.8546ZM47.5 46.7167C46.6292 46.2143 45.7264 45.7695 44.7975 45.385H44.68C44.0338 45.1304 43.3875 44.8759 42.7217 44.68C44.0814 43.5978 45.7623 42.9984 47.5 42.9763C49.2331 42.9873 50.9136 43.5727 52.2783 44.6409C50.6159 45.1599 49.0139 45.8558 47.5 46.7167ZM61.2083 59.7984C57.1872 59.3943 53.1311 60.0703 49.4583 61.7567V50.0067C51.4919 48.8097 53.7294 47.9997 56.0579 47.6175H56.4496C58.024 47.3723 59.6237 47.3328 61.2083 47.5V59.7984Z" fill="#2563EB"/>
</svg>
