<svg width="96" height="96" viewBox="0 0 96 96" fill="none" xmlns="http://www.w3.org/2000/svg">
<rect width="96" height="96" rx="48" fill="#EDE9FE"/>
<path d="M47.3175 32.1463L38.8425 23.6713C33.9895 25.5181 29.7946 28.7651 26.79 33H46.965C47.0638 32.9998 47.1604 32.9704 47.2425 32.9154C47.3246 32.8603 47.3886 32.7822 47.4263 32.6908C47.464 32.5995 47.4738 32.499 47.4544 32.4021C47.4351 32.3051 47.3874 32.2161 47.3175 32.1463Z" fill="#7C3AED"/>
<path d="M36.965 37H24.4537C22.1522 41.9058 21.4462 47.4096 22.435 52.7375L37.3175 37.8538C37.3874 37.7839 37.4351 37.6949 37.4544 37.598C37.4738 37.501 37.464 37.4005 37.4263 37.3092C37.3886 37.2178 37.3246 37.1397 37.2425 37.0847C37.1604 37.0296 37.0638 37.0002 36.965 37Z" fill="#7C3AED"/>
<path d="M59 36.965V24.445C54.0925 22.1506 48.5904 21.4478 43.2637 22.435L58.1462 37.3175C58.2161 37.3874 58.3051 37.4351 58.402 37.4545C58.499 37.4738 58.5995 37.464 58.6908 37.4263C58.7822 37.3886 58.8603 37.3246 58.9153 37.2425C58.9704 37.1604 58.9998 37.0638 59 36.965Z" fill="#7C3AED"/>
<path d="M73.565 43.2625L58.6825 58.1463C58.6126 58.2161 58.5649 58.3051 58.5455 58.402C58.5262 58.499 58.536 58.5995 58.5737 58.6908C58.6114 58.7822 58.6754 58.8603 58.7575 58.9153C58.8396 58.9704 58.9362 58.9998 59.035 59H71.5462C73.8478 54.0942 74.5538 48.5904 73.565 43.2625Z" fill="#7C3AED"/>
<path d="M63.8537 47.3175L72.3325 38.84C70.4906 33.9798 67.2413 29.7792 63 26.775V46.965C63.0002 47.0639 63.0296 47.1604 63.0847 47.2425C63.1397 47.3247 63.2178 47.3886 63.3092 47.4263C63.4005 47.464 63.501 47.4738 63.598 47.4545C63.6949 47.4351 63.7839 47.3875 63.8537 47.3175Z" fill="#7C3AED"/>
<path d="M48.6825 63.8537L57.1575 72.3288C62.0105 70.4819 66.2054 67.235 69.21 63H49.035C48.9362 63.0002 48.8396 63.0296 48.7575 63.0847C48.6754 63.1397 48.6114 63.2178 48.5737 63.3092C48.536 63.4005 48.5262 63.501 48.5455 63.598C48.5649 63.6949 48.6126 63.7839 48.6825 63.8537Z" fill="#7C3AED"/>
<path d="M37 59.035V71.555C41.9075 73.8495 47.4096 74.5523 52.7363 73.565L37.8538 58.6825C37.7839 58.6126 37.6949 58.5649 37.598 58.5456C37.501 58.5262 37.4005 58.536 37.3092 58.5737C37.2178 58.6115 37.1397 58.6754 37.0847 58.7575C37.0296 58.8396 37.0002 58.9362 37 59.035Z" fill="#7C3AED"/>
<path d="M32.1462 48.6825L23.6675 57.1613C25.5098 62.0209 28.759 66.221 33 69.225V49.035C32.9998 48.9362 32.9704 48.8396 32.9153 48.7575C32.8603 48.6754 32.7822 48.6115 32.6908 48.5737C32.5995 48.536 32.499 48.5262 32.402 48.5456C32.3051 48.5649 32.2161 48.6126 32.1462 48.6825Z" fill="#7C3AED"/>
<path d="M57.92 47.6C55.9 42.91 52.1 40 48 40C43.9 40 40.1 42.91 38.08 47.6C38.0249 47.7262 37.9965 47.8623 37.9965 48C37.9965 48.1377 38.0249 48.2738 38.08 48.4C40.1 53.09 43.9 56 48 56C52.1 56 55.9 53.09 57.92 48.4C57.9751 48.2738 58.0035 48.1377 58.0035 48C58.0035 47.8623 57.9751 47.7262 57.92 47.6ZM48 54C44.83 54 41.83 51.71 40.1 48C41.83 44.29 44.83 42 48 42C51.17 42 54.17 44.29 55.9 48C54.17 51.71 51.17 54 48 54ZM48 44C47.2089 44 46.4355 44.2346 45.7777 44.6741C45.1199 45.1136 44.6072 45.7384 44.3045 46.4693C44.0017 47.2002 43.9225 48.0044 44.0769 48.7804C44.2312 49.5563 44.6122 50.269 45.1716 50.8284C45.731 51.3878 46.4437 51.7688 47.2196 51.9231C47.9956 52.0775 48.7998 51.9983 49.5307 51.6955C50.2616 51.3928 50.8864 50.8801 51.3259 50.2223C51.7654 49.5645 52 48.7911 52 48C52 46.9391 51.5786 45.9217 50.8284 45.1716C50.0783 44.4214 49.0609 44 48 44ZM48 50C47.6044 50 47.2178 49.8827 46.8889 49.6629C46.56 49.4432 46.3036 49.1308 46.1522 48.7654C46.0009 48.3999 45.9613 47.9978 46.0384 47.6098C46.1156 47.2219 46.3061 46.8655 46.5858 46.5858C46.8655 46.3061 47.2219 46.1156 47.6098 46.0384C47.9978 45.9613 48.3999 46.0009 48.7654 46.1522C49.1308 46.3036 49.4432 46.56 49.6629 46.8889C49.8827 47.2178 50 47.6044 50 48C50 48.5304 49.7893 49.0391 49.4142 49.4142C49.0391 49.7893 48.5304 50 48 50Z" fill="#7C3AED"/>
</svg>
