<svg width="96" height="96" viewBox="0 0 96 96" fill="none" xmlns="http://www.w3.org/2000/svg">
<rect width="96" height="96" rx="48" fill="#DBEAFE"/>
<path d="M49.1737 48.0047C50.3152 46.9451 51.2307 45.6346 51.8582 44.1621C52.4857 42.6896 52.8105 41.0896 52.8105 39.4706C52.8105 36.4284 51.6836 33.5108 49.6776 31.3597C47.6716 29.2085 44.951 28 42.1141 28C39.2773 28 36.5566 29.2085 34.5507 31.3597C32.5447 33.5108 31.4178 36.4284 31.4178 39.4706C31.4178 41.0896 31.7425 42.6896 32.37 44.1621C32.9975 45.6346 33.9131 46.9451 35.0546 48.0047C32.0599 49.4589 29.5191 51.8073 27.7361 54.769C25.953 57.7308 25.0031 61.1805 25 64.7059C25 65.3143 25.2254 65.8978 25.6266 66.3281C26.0278 66.7583 26.5719 67 27.1393 67C27.7066 67 28.2508 66.7583 28.652 66.3281C29.0532 65.8978 29.2785 65.3143 29.2785 64.7059C29.2785 61.0553 30.6309 57.5541 33.038 54.9728C35.4451 52.3914 38.7099 50.9412 42.1141 50.9412C45.5184 50.9412 48.7831 52.3914 51.1903 54.9728C53.5974 57.5541 54.9498 61.0553 54.9498 64.7059C54.9498 65.3143 55.1751 65.8978 55.5763 66.3281C55.9775 66.7583 56.5217 67 57.089 67C57.6564 67 58.2005 66.7583 58.6017 66.3281C59.0029 65.8978 59.2283 65.3143 59.2283 64.7059C59.2251 61.1805 58.2753 57.7308 56.4922 54.769C54.7092 51.8073 52.1684 49.4589 49.1737 48.0047ZM42.1141 46.3529C40.8448 46.3529 39.604 45.9493 38.5486 45.1931C37.4932 44.4368 36.6706 43.3619 36.1849 42.1044C35.6991 40.8468 35.572 39.463 35.8197 38.1279C36.0673 36.7929 36.6785 35.5665 37.5761 34.604C38.4736 33.6415 39.6172 32.986 40.8621 32.7205C42.107 32.4549 43.3974 32.5912 44.5701 33.1121C45.7428 33.633 46.7452 34.5152 47.4504 35.647C48.1556 36.7788 48.532 38.1094 48.532 39.4706C48.532 41.2959 47.8558 43.0465 46.6522 44.3371C45.4487 45.6278 43.8163 46.3529 42.1141 46.3529ZM62.9506 47.0871C64.3197 45.4338 65.214 43.3914 65.5259 41.2057C65.8378 39.0201 65.554 36.7843 64.7086 34.7676C63.8632 32.7509 62.4924 31.0392 60.761 29.8386C59.0297 28.6379 57.0116 27.9994 54.9498 28C54.3824 28 53.8383 28.2417 53.4371 28.6719C53.0359 29.1022 52.8105 29.6857 52.8105 30.2941C52.8105 30.9026 53.0359 31.4861 53.4371 31.9163C53.8383 32.3465 54.3824 32.5882 54.9498 32.5882C56.6519 32.5882 58.2843 33.3133 59.4878 34.604C60.6914 35.8947 61.3676 37.6453 61.3676 39.4706C61.3645 40.6756 61.0666 41.8585 60.5034 42.9013C59.9403 43.944 59.1318 44.8099 58.1587 45.4124C57.8415 45.6085 57.5766 45.8888 57.3893 46.2262C57.202 46.5636 57.0986 46.9469 57.089 47.3394C57.0801 47.7289 57.1638 48.1144 57.3322 48.4595C57.5006 48.8047 57.7482 49.0982 58.0517 49.3124L58.886 49.9088L59.1641 50.0694C61.7428 51.381 63.9182 53.4555 65.4343 56.0486C66.9503 58.6417 67.7438 61.6454 67.7212 64.7059C67.7212 65.3143 67.9466 65.8978 68.3478 66.3281C68.749 66.7583 69.2931 67 69.8605 67C70.4278 67 70.972 66.7583 71.3731 66.3281C71.7743 65.8978 71.9997 65.3143 71.9997 64.7059C72.0172 61.1854 71.195 57.7186 69.6112 54.6348C68.0273 51.5511 65.7345 48.9529 62.9506 47.0871Z" fill="#2563EB"/>
</svg>
