<svg width="96" height="96" viewBox="0 0 96 96" fill="none" xmlns="http://www.w3.org/2000/svg">
<rect width="96" height="96" rx="48" fill="#F9B2D8" fill-opacity="0.65"/>
<path d="M36.735 45.2087C37.166 45.2648 37.6016 45.1473 37.9459 44.8822C38.2903 44.617 38.5152 44.226 38.5713 43.795C38.6273 43.364 38.5098 42.9284 38.2447 42.5841C37.9796 42.2397 37.5885 42.0148 37.1575 41.9587L34.2975 41.2437C34.089 41.1798 33.8698 41.1585 33.6528 41.1811C33.4359 41.2037 33.2258 41.2697 33.0349 41.3753C32.8441 41.4808 32.6764 41.6237 32.5419 41.7953C32.4075 41.967 32.3089 42.164 32.2522 42.3746C32.1954 42.5852 32.1817 42.805 32.2117 43.0211C32.2417 43.2371 32.3149 43.4448 32.4269 43.6319C32.5389 43.8191 32.6875 43.9817 32.8637 44.1103C33.0398 44.2388 33.2401 44.3305 33.4525 44.38L36.3125 45.1437C36.4486 45.1892 36.5915 45.2111 36.735 45.2087ZM43.0075 36.125C43.1027 36.4795 43.3152 36.7913 43.6103 37.0097C43.9053 37.228 44.2656 37.34 44.6325 37.3275C44.7724 37.35 44.9151 37.35 45.055 37.3275C45.4675 37.2134 45.8182 36.9412 46.0312 36.57C46.2442 36.1988 46.3021 35.7586 46.1925 35.345L45.4288 32.485C45.3793 32.2726 45.2875 32.0723 45.159 31.8961C45.0305 31.7199 44.8679 31.5714 44.6807 31.4594C44.4936 31.3474 44.2858 31.2742 44.0698 31.2442C43.8538 31.2141 43.634 31.2279 43.4234 31.2847C43.2128 31.3414 43.0158 31.4399 42.8441 31.5744C42.6724 31.7089 42.5296 31.8765 42.424 32.0674C42.3185 32.2583 42.2525 32.4684 42.2299 32.6853C42.2073 32.9022 42.2286 33.1215 42.2925 33.33L43.0075 36.125ZM50.8563 52.375C50.7045 52.2152 50.5217 52.0879 50.3192 52.001C50.1167 51.914 49.8985 51.8692 49.6781 51.8692C49.4577 51.8692 49.2396 51.914 49.0371 52.001C48.8346 52.0879 48.6518 52.2152 48.5 52.375L42.8125 58.16C42.1438 58.8015 41.253 59.1598 40.3263 59.1598C39.3996 59.1598 38.5087 58.8015 37.84 58.16C37.5108 57.835 37.2495 57.4479 37.0711 57.0211C36.8927 56.5943 36.8008 56.1363 36.8008 55.6737C36.8008 55.2112 36.8927 54.7532 37.0711 54.3264C37.2495 53.8996 37.5108 53.5125 37.84 53.1875L43.625 47.5C43.7951 47.3543 43.9333 47.175 44.0308 46.9734C44.1284 46.7718 44.1832 46.5522 44.1918 46.3284C44.2005 46.1047 44.1627 45.8815 44.081 45.673C43.9994 45.4644 43.8754 45.275 43.7171 45.1167C43.5587 44.9583 43.3693 44.8344 43.1608 44.7527C42.9523 44.671 42.7291 44.6333 42.5053 44.6419C42.2815 44.6506 42.0619 44.7054 41.8603 44.8029C41.6587 44.9005 41.4794 45.0386 41.3338 45.2087L35.5 50.88C34.8684 51.5116 34.3673 52.2615 34.0254 53.0868C33.6836 53.9121 33.5076 54.7967 33.5076 55.69C33.5076 56.5833 33.6836 57.4678 34.0254 58.2931C34.3673 59.1184 34.8684 59.8683 35.5 60.5C36.1317 61.1316 36.8816 61.6327 37.7069 61.9746C38.5322 62.3164 39.4167 62.4924 40.31 62.4924C41.2033 62.4924 42.0879 62.3164 42.9132 61.9746C43.7385 61.6327 44.4884 61.1316 45.12 60.5L50.8563 54.7637C51.0212 54.6116 51.1528 54.4269 51.2429 54.2213C51.3329 54.0158 51.3794 53.7938 51.3794 53.5694C51.3794 53.3449 51.3329 53.123 51.2429 52.9174C51.1528 52.7118 51.0212 52.5272 50.8563 52.375ZM37.4175 38.7087C37.7202 39.0089 38.1287 39.1782 38.555 39.18C38.7689 39.1812 38.9809 39.1402 39.1789 39.0594C39.3768 38.9785 39.5569 38.8593 39.7088 38.7087C40.0114 38.4043 40.1813 37.9924 40.1813 37.5631C40.1813 37.1338 40.0114 36.7219 39.7088 36.4175L37.6125 34.3212C37.3016 34.055 36.9018 33.9159 36.4928 33.9317C36.0838 33.9475 35.6959 34.117 35.4065 34.4064C35.1171 34.6958 34.9475 35.0838 34.9317 35.4928C34.9159 35.9017 35.055 36.3016 35.3213 36.6125L37.4175 38.7087ZM63.5475 50.62L60.6875 49.8562C60.4756 49.783 60.2508 49.7544 60.0272 49.7722C59.8037 49.7901 59.5863 49.854 59.3887 49.96C59.191 50.066 59.0175 50.2117 58.8789 50.3881C58.7404 50.5644 58.6398 50.7675 58.5836 50.9845C58.5273 51.2016 58.5166 51.428 58.5522 51.6494C58.5877 51.8708 58.6686 52.0825 58.7899 52.2711C58.9112 52.4597 59.0703 52.6212 59.257 52.7453C59.4437 52.8695 59.6542 52.9536 59.875 52.9925L62.735 53.7562H63.1575C63.5885 53.8123 64.0241 53.6948 64.3684 53.4297C64.7128 53.1645 64.9377 52.7735 64.9938 52.3425C65.0498 51.9115 64.9323 51.4759 64.6672 51.1316C64.4021 50.7872 64.011 50.5623 63.58 50.5062L63.5475 50.62ZM53.9925 58.875C53.9361 58.669 53.8396 58.4761 53.7086 58.3074C53.5776 58.1387 53.4146 57.9975 53.229 57.8919C53.0433 57.7862 52.8387 57.7182 52.6267 57.6917C52.4148 57.6652 52.1997 57.6808 51.9938 57.7375C51.5813 57.8516 51.2305 58.1238 51.0176 58.4949C50.8046 58.8661 50.7466 59.3063 50.8563 59.72L51.62 62.58C51.7152 62.9345 51.9277 63.2463 52.2228 63.4647C52.5178 63.683 52.8781 63.7951 53.245 63.7825C53.3854 63.7985 53.5271 63.7985 53.6675 63.7825C53.875 63.7278 54.0696 63.6326 54.2401 63.5023C54.4106 63.3721 54.5536 63.2093 54.6608 63.0235C54.7681 62.8377 54.8375 62.6324 54.865 62.4197C54.8926 62.2069 54.8777 61.9907 54.8213 61.7837L53.9925 58.875ZM59.5825 56.3237C59.2716 56.0575 58.8718 55.9184 58.4628 55.9342C58.0538 55.95 57.6659 56.1195 57.3765 56.4089C57.0871 56.6983 56.9175 57.0863 56.9017 57.4953C56.8859 57.9042 57.025 58.3041 57.2913 58.615L59.3875 60.7112C59.692 61.0139 60.1038 61.1838 60.5331 61.1838C60.9624 61.1838 61.3743 61.0139 61.6788 60.7112C61.9814 60.4068 62.1513 59.9949 62.1513 59.5656C62.1513 59.1363 61.9814 58.7244 61.6788 58.42L59.5825 56.3237ZM63.45 39.375C63.4753 38.0237 63.0949 36.6959 62.358 35.5629C61.6211 34.4299 60.5615 33.5439 59.316 33.0191C58.0705 32.4943 56.6964 32.3549 55.3709 32.6189C54.0454 32.8829 52.8294 33.5381 51.88 34.5L46.1438 40.285C45.9901 40.4397 45.8684 40.6232 45.7857 40.8249C45.703 41.0266 45.6608 41.2427 45.6615 41.4607C45.6623 41.6788 45.706 41.8945 45.7901 42.0957C45.8742 42.2968 45.9972 42.4795 46.1519 42.6331C46.3066 42.7868 46.4901 42.9084 46.6918 42.9912C46.8935 43.0739 47.1096 43.1161 47.3276 43.1154C47.5457 43.1146 47.7614 43.0709 47.9626 42.9868C48.1638 42.9026 48.3464 42.7797 48.5 42.625L54.1875 36.84C54.8562 36.1984 55.7471 35.8402 56.6738 35.8402C57.6005 35.8402 58.4913 36.1984 59.16 36.84C59.4892 37.165 59.7506 37.5521 59.929 37.9789C60.1073 38.4057 60.1992 38.8637 60.1992 39.3262C60.1992 39.7888 60.1073 40.2468 59.929 40.6736C59.7506 41.1004 59.4892 41.4875 59.16 41.8125L53.375 47.5C53.0724 47.8044 52.9025 48.2163 52.9025 48.6456C52.9025 49.0749 53.0724 49.4868 53.375 49.7912C53.6795 50.0939 54.0913 50.2638 54.5206 50.2638C54.9499 50.2638 55.3618 50.0939 55.6663 49.7912L61.5 44.12C62.7438 42.853 63.4435 41.1504 63.45 39.375Z" fill="#A839A4"/>
</svg>
