<svg width="96" height="96" viewBox="0 0 96 96" fill="none" xmlns="http://www.w3.org/2000/svg">
<rect width="96" height="96" rx="48" fill="#D1FAE5"/>
<path d="M39.1094 52.587C38.8632 52.5869 38.6194 52.6343 38.3918 52.7264C38.1643 52.8185 37.9576 52.9536 37.7835 53.1238C37.6094 53.2941 37.4712 53.4962 37.377 53.7187C37.2828 53.9411 37.2344 54.1795 37.2344 54.4203V57.6878C34.8177 55.0154 33.4839 51.571 33.4844 48.0036C33.4841 47.4645 33.5171 46.9258 33.5833 46.3905C33.6137 46.1512 33.5954 45.9083 33.5296 45.6759C33.4638 45.4434 33.3517 45.2259 33.1998 45.0359C33.0479 44.8459 32.8591 44.6871 32.6443 44.5685C32.4295 44.4499 32.1928 44.374 31.9479 44.345C31.703 44.3161 31.4547 44.3346 31.2172 44.3997C30.9796 44.4647 30.7576 44.5749 30.5637 44.724C30.3698 44.8731 30.2079 45.0582 30.0873 45.2686C29.9667 45.479 29.8897 45.7106 29.8608 45.9501C29.7759 46.6315 29.7337 47.3173 29.7344 48.0036C29.737 52.3783 31.345 56.6068 34.2661 59.9203H31.6094C31.1122 59.9203 30.6353 60.1135 30.2836 60.4573C29.932 60.8011 29.7344 61.2674 29.7344 61.7536C29.7344 62.2399 29.932 62.7062 30.2836 63.05C30.6353 63.3938 31.1122 63.587 31.6094 63.587H39.1094C39.4027 63.5834 39.6908 63.5113 39.9498 63.3768C40.2088 63.2423 40.4312 63.0492 40.5984 62.8137C40.6203 62.7855 40.6482 62.7645 40.6686 62.7348C40.6811 62.7166 40.6814 62.695 40.6931 62.6764C40.7824 62.5288 40.8494 62.3693 40.8918 62.2029C40.9196 62.1094 40.9393 62.0138 40.9508 61.9171C40.9561 61.8605 40.9845 61.8117 40.9845 61.7537V54.4204C40.9846 54.1796 40.9361 53.9411 40.8419 53.7187C40.7477 53.4962 40.6096 53.2941 40.4355 53.1238C40.2613 52.9536 40.0546 52.8185 39.8271 52.7264C39.5996 52.6343 39.3557 52.5869 39.1094 52.587ZM41.9219 37.0036H38.5798C41.3132 34.6407 44.8359 33.3366 48.4844 33.337C49.0356 33.3357 49.5863 33.368 50.1333 33.4337C50.3778 33.4627 50.6258 33.4444 50.8631 33.3797C51.1004 33.315 51.3224 33.2053 51.5163 33.0567C51.7102 32.9082 51.8723 32.7237 51.9933 32.5139C52.1144 32.3041 52.1919 32.0731 52.2216 31.834C52.2513 31.5949 52.2326 31.3524 52.1664 31.1204C52.1003 30.8883 51.988 30.6713 51.8361 30.4817C51.6842 30.2921 51.4956 30.1336 51.281 30.0153C51.0664 29.8969 50.8301 29.8211 50.5856 29.7921C49.8884 29.7098 49.1867 29.6692 48.4844 29.6703C44.0104 29.6727 39.6858 31.2448 36.2969 34.1009V31.5036C36.2969 31.0174 36.0994 30.5511 35.7478 30.2073C35.3961 29.8635 34.9192 29.6703 34.4219 29.6703C33.9247 29.6703 33.4478 29.8635 33.0961 30.2073C32.7445 30.5511 32.5469 31.0174 32.5469 31.5036V38.837C32.5587 38.9582 32.5834 39.0778 32.6207 39.1939L32.6211 39.1962C32.6666 39.4218 32.7565 39.6366 32.8858 39.8287L32.9072 39.8597C33.0311 40.0359 33.1864 40.1888 33.3656 40.3113C33.3861 40.326 33.3963 40.3484 33.4176 40.3624C33.4444 40.3798 33.4747 40.3853 33.5021 40.4011C33.6084 40.4637 33.7211 40.5153 33.8383 40.5551C33.9967 40.609 34.1619 40.6416 34.3292 40.652C34.3617 40.6537 34.3891 40.6704 34.4219 40.6704H41.9219C42.4192 40.6704 42.8961 40.4772 43.2478 40.1334C43.5994 39.7896 43.7969 39.3233 43.7969 38.837C43.7969 38.3508 43.5994 37.8845 43.2478 37.5407C42.8961 37.1969 42.4192 37.0037 41.9219 37.0037V37.0036ZM64.3478 56.8111C64.3023 56.5855 64.2124 56.3706 64.083 56.1785L64.0618 56.1477C63.9378 55.9714 63.7824 55.8184 63.603 55.6959C63.5825 55.6813 63.5725 55.6587 63.5513 55.6448C63.531 55.6317 63.507 55.6313 63.4864 55.619C63.2486 55.4897 62.9879 55.4055 62.7182 55.3707C62.6589 55.3652 62.6077 55.3369 62.5469 55.3369H55.0469C54.5497 55.3369 54.0728 55.53 53.7211 55.8739C53.3695 56.2177 53.1719 56.684 53.1719 57.1702C53.1719 57.6564 53.3695 58.1228 53.7211 58.4666C54.0728 58.8104 54.5497 59.0036 55.0469 59.0036H58.389C55.6556 61.3665 52.1329 62.6707 48.4844 62.6702C47.9333 62.6709 47.3826 62.638 46.8356 62.5718C46.3417 62.5131 45.8442 62.6487 45.4526 62.9487C45.0609 63.2487 44.8072 63.6885 44.7473 64.1714C44.6873 64.6544 44.826 65.1408 45.1328 65.5237C45.4396 65.9066 45.8894 66.1547 46.3833 66.2134C47.0805 66.2956 47.7822 66.3368 48.4844 66.3369C52.9585 66.3345 57.283 64.7624 60.6719 61.9063V64.5036C60.6719 64.9899 60.8695 65.4562 61.2211 65.8C61.5728 66.1438 62.0497 66.337 62.5469 66.337C63.0442 66.337 63.5211 66.1438 63.8728 65.8C64.2244 65.4562 64.4219 64.9899 64.4219 64.5036V57.1703C64.4102 57.0491 64.3855 56.9295 64.3482 56.8134L64.3478 56.8111ZM65.3594 36.087C65.8567 36.087 66.3336 35.8938 66.6853 35.55C67.0369 35.2062 67.2344 34.7399 67.2344 34.2536C67.2344 33.7674 67.0369 33.3011 66.6853 32.9573C66.3336 32.6135 65.8567 32.4203 65.3594 32.4203H57.8594C57.7374 32.4318 57.6168 32.4556 57.4998 32.4913L57.4873 32.4937C57.2596 32.5383 57.0427 32.6251 56.8485 32.7495L56.8117 32.7738C56.6324 32.8948 56.4766 33.0461 56.3518 33.2207C56.337 33.2405 56.3143 33.2503 56.3003 33.2707C56.2869 33.2904 56.2865 33.3137 56.2739 33.3337C56.1401 33.5677 56.0533 33.8245 56.0182 34.0903C56.0128 34.1469 55.9844 34.1957 55.9844 34.2536V41.587C55.9844 42.0732 56.182 42.5395 56.5336 42.8833C56.8853 43.2272 57.3622 43.4203 57.8594 43.4203C58.3567 43.4203 58.8336 43.2272 59.1853 42.8833C59.5369 42.5395 59.7344 42.0732 59.7344 41.587V38.3184C62.151 40.9913 63.4848 44.4359 63.4844 48.0036C63.4848 48.5427 63.4518 49.0814 63.3856 49.6167C63.3261 50.0993 63.4649 50.5852 63.7715 50.9678C64.078 51.3504 64.5273 51.5986 65.0207 51.6577C65.0967 51.6663 65.1731 51.6705 65.2496 51.6702C65.7074 51.6696 66.1492 51.5053 66.4915 51.2081C66.8339 50.9109 67.0532 50.5015 67.1081 50.0571C67.193 49.3758 67.2352 48.69 67.2344 48.0036C67.2319 43.629 65.6238 39.4005 62.7026 36.087H65.3594Z" fill="#059669"/>
</svg>
