<svg width="96" height="96" viewBox="0 0 96 96" fill="none" xmlns="http://www.w3.org/2000/svg">
<rect width="96" height="96" rx="48" fill="#CFFAFE"/>
<path d="M50.455 53.875C50.4126 53.7444 50.3479 53.6222 50.2637 53.5137L50.0087 53.195C49.8112 52.9958 49.5762 52.8377 49.3172 52.7298C49.0583 52.622 48.7805 52.5664 48.5 52.5664C48.2195 52.5664 47.9417 52.622 47.6828 52.7298C47.4238 52.8377 47.1888 52.9958 46.9912 53.195C46.8899 53.2871 46.8039 53.3947 46.7362 53.5137C46.6521 53.6222 46.5874 53.7444 46.545 53.875C46.4835 54.0028 46.4405 54.1388 46.4175 54.2787C46.4071 54.4131 46.4071 54.5481 46.4175 54.6825C46.4101 54.9681 46.4683 55.2516 46.5875 55.5112C46.8037 56.028 47.2153 56.4385 47.7326 56.6534C48.25 56.8683 48.8312 56.8702 49.35 56.6587C49.6083 56.5432 49.8453 56.3852 50.0512 56.1912C50.2424 55.9954 50.3939 55.7645 50.4975 55.5112C50.6091 55.2492 50.667 54.9673 50.6675 54.6825C50.6779 54.5481 50.6779 54.4131 50.6675 54.2787C50.6178 54.134 50.5462 53.9978 50.455 53.875ZM48.5 37.64C47.9364 37.64 47.3959 37.8639 46.9974 38.2624C46.5989 38.6609 46.375 39.2014 46.375 39.765V46.14C46.375 46.7036 46.5989 47.2441 46.9974 47.6426C47.3959 48.0411 47.9364 48.265 48.5 48.265C49.0636 48.265 49.6041 48.0411 50.0026 47.6426C50.4011 47.2441 50.625 46.7036 50.625 46.14V39.765C50.625 39.2014 50.4011 38.6609 50.0026 38.2624C49.6041 37.8639 49.0636 37.64 48.5 37.64V37.64ZM64.7137 29.7562C64.4669 29.5565 64.1784 29.4147 63.8695 29.3411C63.5606 29.2676 63.2391 29.2642 62.9287 29.3312C60.6581 29.8071 58.314 29.8132 56.0408 29.349C53.7677 28.8849 51.6136 27.9604 49.7112 26.6325C49.3555 26.3857 48.9329 26.2535 48.5 26.2535C48.0671 26.2535 47.6445 26.3857 47.2887 26.6325C45.3864 27.9604 43.2323 28.8849 40.9592 29.349C38.686 29.8132 36.3419 29.8071 34.0712 29.3312C33.7609 29.2642 33.4394 29.2676 33.1305 29.3411C32.8216 29.4147 32.5331 29.5565 32.2862 29.7562C32.0397 29.9562 31.8411 30.2089 31.705 30.4958C31.569 30.7826 31.4989 31.0963 31.5 31.4137V47.245C31.4981 50.2917 32.2241 53.2948 33.6176 56.0041C35.0111 58.7135 37.0318 61.0508 39.5112 62.8212L47.2675 68.3462C47.6274 68.6025 48.0582 68.7402 48.5 68.7402C48.9418 68.7402 49.3726 68.6025 49.7325 68.3462L57.4887 62.8212C59.9682 61.0508 61.9889 58.7135 63.3824 56.0041C64.7759 53.2948 65.5019 50.2917 65.5 47.245V31.4137C65.5011 31.0963 65.431 30.7826 65.2949 30.4958C65.1589 30.2089 64.9603 29.9562 64.7137 29.7562V29.7562ZM61.25 47.245C61.2516 49.6138 60.6875 51.9488 59.6045 54.0556C58.5215 56.1625 56.951 57.9802 55.0237 59.3575L48.5 64.0112L41.9762 59.3575C40.0489 57.9802 38.4785 56.1625 37.3955 54.0556C36.3125 51.9488 35.7484 49.6138 35.75 47.245V33.8575C40.2049 34.2388 44.6666 33.2052 48.5 30.9037C52.3334 33.2052 56.7951 34.2388 61.25 33.8575V47.245Z" fill="#0891B2"/>
</svg>
