<svg width="96" height="96" viewBox="0 0 96 96" fill="none" xmlns="http://www.w3.org/2000/svg">
<rect width="96" height="96" rx="48" fill="#D1FAE5"/>
<path d="M53.4 48C53.4 44.94 51.06 42.6 48 42.6C44.94 42.6 42.6 44.94 42.6 48C42.6 51.06 44.94 53.4 48 53.4C51.06 53.4 53.4 51.06 53.4 48ZM57 32.34C49.98 28.38 41.34 29.64 35.58 34.86V31.8C35.58 30.72 34.86 30 33.78 30C32.7 30 31.98 30.72 31.98 31.8V39.9C31.98 40.98 32.7 41.7 33.78 41.7H41.88C42.96 41.7 43.68 40.98 43.68 39.9C43.68 38.82 42.96 38.1 41.88 38.1H37.56C40.26 35.22 44.04 33.6 48 33.6C55.92 33.6 62.4 40.08 62.4 48C62.4 49.08 63.12 49.8 64.2 49.8C65.28 49.8 66 49.08 66 48C66 41.52 62.58 35.58 57 32.34ZM62.22 54.3H54.12C53.04 54.3 52.32 55.02 52.32 56.1C52.32 57.18 53.04 57.9 54.12 57.9H58.44C55.74 60.78 51.96 62.4 48 62.4C40.08 62.4 33.6 55.92 33.6 48C33.6 46.92 32.88 46.2 31.8 46.2C30.72 46.2 30 46.92 30 48C30 57.9 38.1 66 48 66C52.68 66 57 64.2 60.42 60.96V64.2C60.42 65.28 61.14 66 62.22 66C63.3 66 64.02 65.28 64.02 64.2V56.1C64.02 55.02 63.12 54.3 62.22 54.3Z" fill="#059669"/>
</svg>
